<svg width="20" height="20" viewBox="0 0 20 20" fill="none" xmlns="http://www.w3.org/2000/svg">
<path d="M8.79188 14.1427C9.00938 14.0466 9.19569 13.911 9.3508 13.7359C9.50585 13.5608 9.62475 13.3499 9.70742 13.1032C9.79004 12.8567 9.83134 12.5807 9.83134 12.2757C9.83134 12.0008 9.79419 11.7418 9.72008 11.4989C9.6459 11.256 9.53457 11.0442 9.38622 10.8634C9.2378 10.6826 9.05316 10.5395 8.83231 10.434C8.61139 10.3286 8.35425 10.2759 8.0609 10.2759H6.75586V14.2867H8.0609C8.33069 14.2867 8.57437 14.2387 8.79188 14.1427ZM7.45397 10.9594H8.06096C8.22953 10.9594 8.38043 10.9914 8.51365 11.0554C8.64681 11.1194 8.75901 11.2099 8.85005 11.3265C8.9411 11.4433 9.01019 11.5827 9.05745 11.7445C9.10465 11.9066 9.12828 12.0835 9.12828 12.2755C9.12828 12.464 9.10465 12.639 9.05745 12.801C9.01019 12.963 8.9419 13.1031 8.8526 13.2219C8.76322 13.3405 8.65189 13.4337 8.51874 13.5015C8.38552 13.5692 8.23295 13.6032 8.06096 13.6032H7.45397V10.9594Z" fill="black"/>
<path d="M5.1892 13.5587C5.08128 13.649 4.92443 13.6943 4.71877 13.6943C4.53668 13.6943 4.38491 13.6605 4.26354 13.5926C4.1421 13.5249 4.0376 13.4288 3.9499 13.3046L3.56543 13.8412C3.69698 14.0182 3.86133 14.1528 4.05862 14.2452C4.25591 14.3374 4.48265 14.3836 4.73899 14.3836C4.94136 14.3836 5.12346 14.3562 5.28526 14.3016C5.44714 14.2471 5.58451 14.1697 5.69751 14.07C5.81045 13.9702 5.89808 13.8487 5.96054 13.7057C6.02294 13.5625 6.05413 13.4026 6.05413 13.2255C6.05413 12.9619 5.98913 12.7388 5.85939 12.556C5.72965 12.3733 5.56021 12.2612 5.35114 12.2198C5.44553 12.2011 5.53236 12.1633 5.61162 12.1068C5.69082 12.0503 5.7591 11.9807 5.81648 11.8977C5.87378 11.815 5.91763 11.7227 5.94796 11.621C5.97828 11.5193 5.99348 11.4119 5.99348 11.299C5.99348 11.1484 5.9657 11.0118 5.91 10.8894C5.85437 10.767 5.7751 10.6626 5.67228 10.5758C5.56938 10.4893 5.4472 10.4215 5.30555 10.3725C5.16396 10.3236 5.0071 10.2991 4.83512 10.2991C4.70357 10.2991 4.57537 10.3132 4.45065 10.3415C4.32586 10.3697 4.21038 10.4093 4.10414 10.4601C3.9979 10.511 3.90257 10.5712 3.81835 10.6409C3.734 10.7106 3.66658 10.7888 3.61597 10.8754L4.04088 11.4063C4.1184 11.2632 4.21868 11.1521 4.34186 11.073C4.46491 10.9939 4.60402 10.9544 4.7592 10.9544C4.91097 10.9544 5.03402 10.9921 5.12848 11.0673C5.22287 11.1427 5.27007 11.2575 5.27007 11.412C5.27007 11.5739 5.21269 11.7067 5.09808 11.8103C4.9834 11.9139 4.82153 11.9656 4.61246 11.9656H4.45567V12.5305H4.59726C4.85018 12.5305 5.03897 12.5833 5.16382 12.6887C5.28854 12.7942 5.351 12.9448 5.351 13.1406C5.35107 13.329 5.29711 13.4683 5.1892 13.5587Z" fill="black"/>
<path d="M6.80596 0L0 3.8004V19.3999H13.194L20 15.5996V0H6.80596ZM12.8155 18.7158H0.612552V4.35387H12.8155V18.7158ZM13.0494 3.66978H1.60368L6.95063 0.684089H18.3964L13.0494 3.66978ZM19.3875 15.1767L13.428 18.5044V4.22311L19.3875 0.895447V15.1767Z" fill="black"/>
</svg>
