<svg width="100px" height="101px" viewBox="0 0 100 101" fill="none" xmlns="http://www.w3.org/2000/svg" transform="rotate(0) scale(1, 1)">
<g clip-path="url(#clip0_221_115)">
<path d="M95.9258 4.02976C91.8516 -0.0768261 85.799 0.000129529 82.5383 0.000129529H17.4548C14.201 0.000129529 8.14835 -0.0838213 4.06728 4.02277C1.37184 6.73717 0 10.8087 0 16.1326V84.8602C0 90.1841 1.37873 94.2557 4.06728 96.9769C7.78299 100.713 13.1394 101 16.5242 101H82.5452C85.799 101 91.8585 101.084 95.9327 96.9844C98.635 94.2627 100 90.1911 100 84.8672V16.1396C99.9931 10.8158 98.6282 6.74417 95.9258 4.02976ZM97.2356 84.8672C97.2356 89.4145 96.1464 92.8215 93.9887 94.9899C90.7211 98.2785 85.6128 98.2361 82.5658 98.2011H17.4548C14.394 98.2011 9.29271 98.2785 6.03198 94.9899C3.87425 92.8215 2.77815 89.3936 2.77815 84.8672V16.1396C2.77815 11.5922 3.87425 8.18527 6.03198 6.0166C8.95492 3.04334 13.4151 2.79848 16.4966 2.79848H82.5658C85.6128 2.79848 90.7211 2.72853 93.9749 6.0166C96.1326 8.18527 97.2218 11.6133 97.2218 16.1396L97.2356 84.8672Z" fill="#0d0c0c"/>
<path d="M57.2077 7L8 58L61.6795 93" stroke="#0d0c0c" stroke-width="5"/>
<path d="M68 52H94.5" stroke="#0d0c0c" stroke-width="5"/>
<path d="M67 43L93 34" stroke="#0d0c0c" stroke-width="3"/>
<path d="M67.7773 61.5684L94.5 69.5" stroke="#0d0c0c" stroke-width="3"/>
<path d="M52.7362 25.335L49.4839 27.0812L46.6382 29.2639L44.6056 31.4466L42.9795 33.6294L41.7599 37.1218L40.9468 40.6141L40.5403 42.7969L40.1338 45.8527V49.7817V52.8375L40.5403 56.7664L41.3534 60.6954L42.9795 65.4974L45.4187 69.8629L47.8578 72.9187L50.7035 75.1015L53.1427 76.8477L56.3949 78.5938" stroke="#0d0c0c" stroke-width="3"/>
<path d="M54.3616 89.5076L57.2073 77.7208L58.8334 70.736L59.2399 64.6244C59.2399 62.1506 59.6465 57.9015 59.6465 57.203C59.6465 56.5046 59.6465 50.5093 59.6465 47.599L58.4269 41.9239L56.8008 35.8122L55.1747 30.5736L52.7355 24.8985L48.2637 15.731" stroke="#0d0c0c" stroke-width="3"/>
<path d="M53.5485 40.1778L55.5812 39.3047H56.8008L57.6138 44.1067L58.4269 48.0357V51.0915V64.1879H57.2073L55.5812 63.7514L53.5485 62.0052L52.329 60.259L51.5159 58.5128L51.1094 55.8935L51 52L51.1094 48.0357L51.5159 44.9798L51.9224 42.7971L52.7355 41.0509L53.5485 40.1778Z" fill="#0d0c0c" stroke="#0d0c0c"/>
</g>
<defs>
<clipPath id="clip0_221_115">
<rect width="100" height="101" fill="#0d0c0c"/>
</clipPath>
</defs>
</svg>