<svg width="20" height="20" viewBox="0 0 20 20" fill="none" xmlns="http://www.w3.org/2000/svg">
<g clip-path="url(#clip0_217_284)">
<path d="M19.0109 8.83415C19.0027 8.81506 18.9938 8.79647 18.9836 8.77903L18.9555 8.73129C18.889 8.60996 18.8198 8.49229 18.748 8.37852L14.9833 1.97624C14.9754 1.96081 14.9668 1.94594 14.9575 1.93185C14.5826 1.3647 14.0978 1.03266 13.5804 0.982846C13.3651 0.384481 12.9557 0 12.5049 0C11.8251 0 11.272 0.861575 11.272 1.92057V4.3594V4.84716V6.34094H8.72798V4.84716V4.3594V1.92057C8.72798 0.861575 8.17491 0 7.49511 0C7.04446 0 6.63483 0.384542 6.41953 0.982846C5.90207 1.03266 5.4173 1.3647 5.04243 1.93185C5.03315 1.94588 5.02458 1.96063 5.01679 1.97606L1.25194 8.37852C1.1802 8.49229 1.111 8.6099 1.0445 8.73129L1.0164 8.77903C1.00614 8.79647 0.99726 8.81506 0.989041 8.83415C0.371311 10.0073 0 11.5069 0 13.1392C0 16.8877 1.95769 19.9374 4.36399 19.9374C6.77029 19.9374 8.72798 16.8877 8.72798 13.1392C8.72798 12.9648 8.72372 12.792 8.71538 12.6209H11.2846C11.2762 12.792 11.272 12.9648 11.272 13.1392C11.272 16.8877 13.2297 19.9374 15.636 19.9374C18.0423 19.9374 20 16.8877 20 13.1392C20 11.5069 19.6287 10.0073 19.0109 8.83415ZM11.8591 1.92057C11.8591 1.36586 12.1488 0.914559 12.5049 0.914559C12.6397 0.914559 12.7675 0.980346 12.8734 1.09491C12.4797 1.26215 12.1303 1.59786 11.8591 2.04916V1.92057ZM8.1409 1.92057V2.04922C7.86967 1.59786 7.52031 1.26221 7.12661 1.09497C7.23252 0.980407 7.36027 0.91462 7.49511 0.91462C7.85119 0.914559 8.1409 1.36586 8.1409 1.92057ZM4.36399 19.0228C2.28141 19.0228 0.587084 16.3834 0.587084 13.1392C0.587084 11.694 0.923444 10.3692 1.48035 9.34398L1.68493 8.99609C2.36963 7.92179 3.31777 7.2555 4.36399 7.2555C6.44658 7.2555 8.1409 9.89491 8.1409 13.1392C8.1409 16.3834 6.44658 19.0228 4.36399 19.0228ZM4.36399 6.34094C3.91202 6.34094 3.47589 6.44855 3.0656 6.64817L5.46395 2.56961L5.46536 2.56723C5.76102 2.13031 6.14748 1.89009 6.55577 1.89009C7.42982 1.89009 8.1409 2.9978 8.1409 4.3594V4.84716V6.34094H7.49511C7.48838 6.34094 7.48172 6.34131 7.47511 6.34198C7.38975 6.32923 7.30184 6.37447 7.23726 6.47721C7.12384 6.65762 7.12575 6.94717 7.2416 7.12386C7.68904 7.80649 7.98055 8.66721 8.0908 9.60537C7.32364 7.64931 5.94008 6.34094 4.36399 6.34094ZM11.272 11.7064H8.72798V10.4565C8.72798 9.29265 8.50172 8.18603 8.08125 7.2555H11.9187C11.4983 8.18603 11.272 9.29259 11.272 10.4565V11.7064ZM12.7584 7.12386C12.8441 6.99302 12.8701 6.79407 12.824 6.6214C12.7779 6.4488 12.6691 6.33838 12.549 6.3399L12.5029 6.34094H11.8591V4.84716V4.3594C11.8591 2.9978 12.5702 1.89009 13.4442 1.89009C13.8525 1.89009 14.239 2.13031 14.5346 2.56717L14.536 2.56954L16.9344 6.64811C16.5241 6.44855 16.088 6.34094 15.636 6.34094C14.0599 6.34094 12.6764 7.64931 11.9092 9.60543C12.0195 8.66727 12.311 7.80649 12.7584 7.12386ZM15.636 19.0228C13.5534 19.0228 11.8591 16.3834 11.8591 13.1392C11.8591 9.89491 13.5534 7.2555 15.636 7.2555C16.6822 7.2555 17.6304 7.92178 18.315 8.99603L18.5196 9.34392C19.0766 10.3692 19.4129 11.694 19.4129 13.1392C19.4129 16.3834 17.7186 19.0228 15.636 19.0228Z" fill="#FFFBFB"/>
<path d="M4.35032 14.9462C3.83305 14.9462 3.41211 14.2483 3.41211 13.3906C3.41211 12.5329 3.83305 11.835 4.35032 11.835C4.86757 11.835 5.28851 12.5329 5.28851 13.3906C5.28851 14.2483 4.86757 14.9462 4.35032 14.9462ZM4.35032 12.3535C4.00537 12.3535 3.72484 12.8186 3.72484 13.3906C3.72484 13.9625 4.00537 14.4276 4.35032 14.4276C4.69525 14.4276 4.97578 13.9625 4.97578 13.3906C4.97578 12.8186 4.69525 12.3535 4.35032 12.3535Z" fill="#FFFFFC"/>
<path d="M3.65444 17.9925C3.64239 17.9925 3.63006 17.9902 3.61771 17.9848C3.35396 17.8744 3.10046 17.7044 2.8646 17.4789C2.79614 17.4135 2.77208 17.2717 2.80997 17.1585C2.85666 17.019 2.88134 16.8614 2.88134 16.7014C2.88134 16.1746 2.61786 15.7462 2.29388 15.7462C2.19577 15.7462 2.09855 15.7862 2.01278 15.8622C1.94317 15.9238 1.85592 15.8846 1.81567 15.7733C1.67703 15.3894 1.57248 14.9776 1.50462 14.5487C1.48553 14.4274 1.52724 14.3028 1.60009 14.263C1.83918 14.1322 2.00014 13.7683 2.00014 13.358C2.00014 12.9477 1.83948 12.5837 1.60009 12.4529C1.52724 12.4127 1.48553 12.2885 1.50462 12.1672C1.57248 11.7383 1.67703 11.3261 1.81567 10.9426C1.85592 10.8313 1.94317 10.7921 2.01278 10.8537C2.09825 10.9297 2.19548 10.9698 2.29388 10.9698C2.61786 10.9698 2.88134 10.5414 2.88134 10.0146C2.88134 9.85503 2.85666 9.69693 2.80997 9.55744C2.77208 9.44424 2.79614 9.3024 2.8646 9.23694C3.10076 9.01153 3.35396 8.84147 3.61771 8.73114C3.69233 8.7001 3.76899 8.76794 3.79338 8.88639C3.87386 9.27516 4.09768 9.5369 4.34999 9.5369C4.6023 9.5369 4.82613 9.27566 4.9066 8.88639C4.93128 8.76794 5.00795 8.7001 5.08226 8.73114C5.34601 8.84147 5.59954 9.01153 5.8354 9.23694C5.9038 9.3024 5.92794 9.44424 5.89003 9.55744C5.84336 9.69693 5.81865 9.85453 5.81865 10.0146C5.81865 10.5414 6.08213 10.9698 6.40611 10.9698C6.50421 10.9698 6.60143 10.9297 6.68721 10.8537C6.75682 10.7921 6.84409 10.8313 6.8843 10.9426C7.02295 11.3266 7.12749 11.7383 7.19536 12.1672C7.21448 12.2885 7.17277 12.4132 7.09991 12.4529C6.8608 12.5837 6.69985 12.9477 6.69985 13.358C6.69985 13.7683 6.86051 14.1322 7.09991 14.263C7.17277 14.3032 7.21448 14.4274 7.19536 14.5487C7.12749 14.9776 7.02295 15.3899 6.8843 15.7733C6.84409 15.8846 6.75682 15.9238 6.68721 15.8622C6.60143 15.7862 6.50449 15.7462 6.40611 15.7462C6.08213 15.7462 5.81865 16.1746 5.81865 16.7014C5.81865 16.8609 5.84336 17.019 5.89003 17.1585C5.92794 17.2717 5.9038 17.4135 5.8354 17.4789C5.59922 17.7044 5.34601 17.8744 5.08226 17.9848C5.00765 18.0157 4.93099 17.9481 4.9066 17.8295C4.82613 17.4408 4.6023 17.179 4.34999 17.179C4.09768 17.179 3.87386 17.4404 3.79338 17.8295C3.77281 17.9286 3.71612 17.9925 3.65444 17.9925ZM4.35028 16.7019C4.68133 16.7019 4.97945 17.0019 5.13016 17.4671C5.28289 17.3901 5.43151 17.2908 5.57369 17.17C5.54194 17.0199 5.52551 16.8614 5.52551 16.7019C5.52551 15.9119 5.92086 15.269 6.40667 15.269C6.50481 15.269 6.60235 15.2957 6.69454 15.3473C6.76889 15.1161 6.83024 14.8749 6.87726 14.6261C6.5912 14.3816 6.40667 13.8967 6.40667 13.358C6.40667 12.8192 6.5912 12.3349 6.87726 12.0899C6.82996 11.8415 6.76889 11.5998 6.69454 11.3686C6.60235 11.4202 6.50481 11.447 6.40667 11.447C5.92086 11.447 5.52551 10.8041 5.52551 10.0141C5.52551 9.85453 5.54194 9.69595 5.57369 9.54599C5.43151 9.42515 5.28317 9.32533 5.13016 9.2489C4.97974 9.71413 4.68161 10.0141 4.35028 10.0141C4.01896 10.0141 3.72112 9.71413 3.57043 9.2489C3.41769 9.32533 3.26906 9.42515 3.12689 9.54599C3.15862 9.69595 3.17506 9.85453 3.17506 10.0141C3.17506 10.8041 2.7797 11.447 2.29388 11.447C2.19577 11.447 2.09825 11.4202 2.00601 11.3686C1.9317 11.5998 1.87032 11.841 1.82331 12.0899C2.10941 12.3344 2.29388 12.8192 2.29388 13.358C2.29388 13.8967 2.10941 14.3811 1.82331 14.6261C1.87032 14.8745 1.9317 15.1161 2.00601 15.3473C2.09825 15.2957 2.19577 15.269 2.29388 15.269C2.7797 15.269 3.17506 15.9119 3.17506 16.7019C3.17506 16.8614 3.15862 17.0199 3.12689 17.17C3.26906 17.2908 3.41739 17.3906 3.57043 17.4671C3.72083 17.0019 4.01896 16.7019 4.35028 16.7019Z" fill="#FFFFFC"/>
<mask id="mask0_217_284" style="mask-type:luminance" maskUnits="userSpaceOnUse" x="12" y="8" width="7" height="10">
<path d="M18.45 8.72363H12.75V17.9925H18.45V8.72363Z" fill="white"/>
</mask>
<g mask="url(#mask0_217_284)">
<mask id="mask1_217_284" style="mask-type:luminance" maskUnits="userSpaceOnUse" x="12" y="8" width="7" height="10">
<path d="M18.45 8.72363H12.75V17.9925H18.45V8.72363Z" fill="white"/>
</mask>
<g mask="url(#mask1_217_284)">
<path d="M15.6003 14.9462C15.083 14.9462 14.6621 14.2483 14.6621 13.3906C14.6621 12.5329 15.083 11.835 15.6003 11.835C16.1176 11.835 16.5385 12.5329 16.5385 13.3906C16.5385 14.2483 16.1176 14.9462 15.6003 14.9462ZM15.6003 12.3535C15.2554 12.3535 14.9748 12.8186 14.9748 13.3906C14.9748 13.9625 15.2554 14.4276 15.6003 14.4276C15.9453 14.4276 16.2258 13.9625 16.2258 13.3906C16.2258 12.8186 15.9453 12.3535 15.6003 12.3535Z" fill="#FFFFFC"/>
<path d="M14.9044 17.9925C14.8924 17.9925 14.8801 17.9902 14.8677 17.9848C14.604 17.8744 14.3505 17.7044 14.1146 17.4789C14.0461 17.4135 14.0221 17.2717 14.06 17.1584C14.1067 17.019 14.1313 16.8614 14.1313 16.7014C14.1313 16.1746 13.8679 15.7461 13.5439 15.7461C13.4458 15.7461 13.3485 15.7862 13.2628 15.8622C13.1932 15.9238 13.1059 15.8846 13.0657 15.7733C12.927 15.3894 12.8225 14.9776 12.7546 14.5487C12.7355 14.4274 12.7772 14.3028 12.8501 14.263C13.0892 14.1322 13.2501 13.7683 13.2501 13.358C13.2501 12.9477 13.0895 12.5837 12.8501 12.4529C12.7772 12.4127 12.7355 12.2885 12.7546 12.1672C12.8225 11.7383 12.927 11.3261 13.0657 10.9426C13.1059 10.8313 13.1932 10.7921 13.2628 10.8538C13.3483 10.9297 13.4455 10.9698 13.5439 10.9698C13.8679 10.9698 14.1313 10.5414 14.1313 10.0146C14.1313 9.85503 14.1067 9.69693 14.06 9.55744C14.0221 9.44424 14.0461 9.3024 14.1146 9.23694C14.3508 9.01153 14.604 8.84147 14.8677 8.73114C14.9423 8.7001 15.019 8.76794 15.0434 8.88639C15.1239 9.27516 15.3477 9.5369 15.6 9.5369C15.8523 9.5369 16.0761 9.27567 16.1566 8.88639C16.1813 8.76794 16.2579 8.7001 16.3322 8.73114C16.596 8.84147 16.8495 9.01153 17.0854 9.23694C17.1538 9.3024 17.1779 9.44424 17.14 9.55744C17.0934 9.69693 17.0686 9.85453 17.0686 10.0146C17.0686 10.5414 17.3321 10.9698 17.6561 10.9698C17.7542 10.9698 17.8514 10.9297 17.9372 10.8538C18.0068 10.7921 18.0941 10.8313 18.1343 10.9426C18.2729 11.3266 18.3775 11.7383 18.4453 12.1672C18.4645 12.2885 18.4228 12.4132 18.3499 12.4529C18.1108 12.5837 17.9498 12.9477 17.9498 13.358C17.9498 13.7683 18.1105 14.1322 18.3499 14.263C18.4228 14.3032 18.4645 14.4274 18.4453 14.5487C18.3775 14.9776 18.2729 15.3898 18.1343 15.7733C18.0941 15.8846 18.0068 15.9238 17.9372 15.8622C17.8514 15.7862 17.7545 15.7461 17.6561 15.7461C17.3321 15.7461 17.0686 16.1746 17.0686 16.7014C17.0686 16.8609 17.0934 17.019 17.14 17.1584C17.1779 17.2717 17.1538 17.4135 17.0854 17.4789C16.8492 17.7044 16.596 17.8744 16.3322 17.9848C16.2576 18.0157 16.181 17.9481 16.1566 17.8295C16.0761 17.4408 15.8523 17.179 15.6 17.179C15.3477 17.179 15.1239 17.4404 15.0434 17.8295C15.0228 17.9285 14.9661 17.9925 14.9044 17.9925ZM15.6003 16.7019C15.9313 16.7019 16.2294 17.0018 16.3801 17.467C16.5329 17.3901 16.6815 17.2908 16.8237 17.17C16.7919 17.02 16.7755 16.8614 16.7755 16.7019C16.7755 15.9119 17.1709 15.269 17.6567 15.269C17.7548 15.269 17.8523 15.2957 17.9445 15.3473C18.0189 15.1161 18.0802 14.8749 18.1272 14.6261C17.8412 14.3816 17.6567 13.8967 17.6567 13.358C17.6567 12.8192 17.8412 12.3349 18.1272 12.0899C18.0799 11.8415 18.0189 11.5998 17.9445 11.3686C17.8523 11.4202 17.7548 11.447 17.6567 11.447C17.1709 11.447 16.7755 10.8041 16.7755 10.0141C16.7755 9.85453 16.7919 9.69595 16.8237 9.54599C16.6815 9.42515 16.5332 9.32532 16.3801 9.2489C16.2297 9.71414 15.9316 10.0141 15.6003 10.0141C15.2689 10.0141 14.9711 9.71414 14.8204 9.2489C14.6677 9.32532 14.5191 9.42515 14.3769 9.54599C14.4086 9.69595 14.4251 9.85453 14.4251 10.0141C14.4251 10.8041 14.0297 11.447 13.5439 11.447C13.4458 11.447 13.3482 11.4202 13.256 11.3686C13.1817 11.5998 13.1203 11.841 13.0733 12.0899C13.3594 12.3344 13.5439 12.8192 13.5439 13.358C13.5439 13.8967 13.3594 14.3811 13.0733 14.6261C13.1203 14.8745 13.1817 15.1161 13.256 15.3473C13.3482 15.2957 13.4458 15.269 13.5439 15.269C14.0297 15.269 14.4251 15.9119 14.4251 16.7019C14.4251 16.8614 14.4086 17.02 14.3769 17.17C14.5191 17.2908 14.6674 17.3906 14.8204 17.467C14.9708 17.0018 15.2689 16.7019 15.6003 16.7019Z" fill="#FFFFFC"/>
</g>
</g>
</g>
<defs>
<clipPath id="clip0_217_284">
<rect width="20" height="20" fill="white"/>
</clipPath>
</defs>
</svg>
