<svg width="20" height="20" viewBox="0 0 20 20" fill="none" xmlns="http://www.w3.org/2000/svg">
<g clip-path="url(#clip0_217_408)">
<mask id="mask0_217_408" style="mask-type:luminance" maskUnits="userSpaceOnUse" x="0" y="0" width="20" height="20">
<path d="M20 0H0V20H20V0Z" fill="white"/>
</mask>
<g mask="url(#mask0_217_408)">
<mask id="mask1_217_408" style="mask-type:luminance" maskUnits="userSpaceOnUse" x="0" y="0" width="20" height="20">
<path d="M20 0H0V20H20V0Z" fill="white"/>
</mask>
<g mask="url(#mask1_217_408)">
<path d="M8 1V2C9.66016 2 11.1523 2.67187 12.2422 3.75781C13.3281 4.84766 14 6.33984 14 8C14 9.66016 13.3281 11.1523 12.2422 12.2422C11.1523 13.3281 9.66016 14 8 14C6.33984 14 4.84766 13.3281 3.75781 12.2422C2.67187 11.1523 2 9.66016 2 8C2 6.33984 2.67187 4.84766 3.75781 3.75781C4.84766 2.67187 6.33984 2 8 2V1V0C3.58203 0 0 3.58203 0 8C0 12.418 3.58203 16 8 16C12.418 16 16 12.418 16 8C16 3.58203 12.418 0 8 0V1Z" fill="#FCF6F6"/>
<path d="M19.707 18.293L13.707 12.293C13.3164 11.9023 12.6836 11.9023 12.293 12.293C11.9023 12.6836 11.9023 13.3164 12.293 13.707L18.293 19.707C18.6836 20.0977 19.3164 20.0977 19.707 19.707C20.0977 19.3164 20.0977 18.6836 19.707 18.293Z" fill="#FCF6F6"/>
</g>
<path d="M5.33359 6.6668V5.33359H6.6668C7.03516 5.33359 7.33359 5.03516 7.33359 4.6668C7.33359 4.29844 7.03516 4 6.6668 4H4.6668C4.49141 4 4.31953 4.07109 4.19531 4.19531C4.07109 4.31953 4 4.49102 4 4.6668V6.6668C4 7.03516 4.29844 7.33359 4.6668 7.33359C5.03516 7.33359 5.33359 7.03516 5.33359 6.6668ZM9.33359 5.33359H10.6668V6.6668C10.6668 7.03516 10.9652 7.33359 11.3336 7.33359C11.702 7.33359 12.0004 7.03516 12.0004 6.6668V4.6668C12.0004 4.49141 11.9293 4.31953 11.8051 4.19531C11.6809 4.07109 11.5094 4 11.3336 4H9.33359C8.96524 4 8.6668 4.29844 8.6668 4.6668C8.6668 5.03516 8.96524 5.33359 9.33359 5.33359ZM4.00039 9.33359V11.3336C4.00039 11.509 4.07148 11.6809 4.1957 11.8051C4.31992 11.9293 4.49141 12.0004 4.66719 12.0004H6.66719C7.03555 12.0004 7.33398 11.702 7.33398 11.3336C7.33398 10.9652 7.03555 10.6668 6.66719 10.6668H5.33398V9.33359C5.33398 8.96524 5.03555 8.6668 4.66719 8.6668C4.29883 8.6668 4.00039 8.96524 4.00039 9.33359ZM10.6668 9.33359V10.6668H9.33359C8.96524 10.6668 8.6668 10.9652 8.6668 11.3336C8.6668 11.702 8.96524 12.0004 9.33359 12.0004H11.3336C11.509 12.0004 11.6809 11.9293 11.8051 11.8051C11.9293 11.6809 12.0004 11.5094 12.0004 11.3336V9.33359C12.0004 8.96524 11.702 8.6668 11.3336 8.6668C10.9652 8.6668 10.6668 8.96524 10.6668 9.33359Z" fill="#FCF6F6"/>
</g>
</g>
<defs>
<clipPath id="clip0_217_408">
<rect width="20" height="20" fill="white"/>
</clipPath>
</defs>
</svg>
